<svg xmlns="http://www.w3.org/2000/svg" viewBox="0 0 64 64">
  <circle cx="32" cy="32" r="32" fill="#F97316"/>
  <!-- Cat ears -->
  <polygon points="12,8 8,28 22,22" fill="#fff" opacity="0.9"/>
  <polygon points="52,8 56,28 42,22" fill="#fff" opacity="0.9"/>
  <polygon points="14,12 11,25 21,21" fill="#F97316"/>
  <polygon points="50,12 53,25 43,21" fill="#F97316"/>
  <!-- Face -->
  <circle cx="32" cy="36" r="16" fill="#fff" opacity="0.15"/>
  <!-- Eyes -->
  <ellipse cx="24" cy="32" rx="3" ry="3.5" fill="#fff"/>
  <ellipse cx="40" cy="32" rx="3" ry="3.5" fill="#fff"/>
  <circle cx="24" cy="32.5" r="2" fill="#1a1a2e"/>
  <circle cx="40" cy="32.5" r="2" fill="#1a1a2e"/>
  <!-- Nose -->
  <ellipse cx="32" cy="39" rx="2.5" ry="2" fill="#fff"/>
  <!-- Mouth -->
  <path d="M29,42 Q32,46 35,42" stroke="#fff" stroke-width="1.5" fill="none" stroke-linecap="round"/>
  <!-- Whiskers -->
  <line x1="10" y1="36" x2="22" y2="38" stroke="#fff" stroke-width="1" opacity="0.7"/>
  <line x1="10" y1="40" x2="22" y2="40" stroke="#fff" stroke-width="1" opacity="0.7"/>
  <line x1="42" y1="38" x2="54" y2="36" stroke="#fff" stroke-width="1" opacity="0.7"/>
  <line x1="42" y1="40" x2="54" y2="40" stroke="#fff" stroke-width="1" opacity="0.7"/>
</svg>
