<svg xmlns="http://www.w3.org/2000/svg" viewBox="0 0 64 64">
  <circle cx="32" cy="32" r="32" fill="#3B82F6"/>
  <!-- Dog ears -->
  <ellipse cx="14" cy="20" rx="8" ry="14" fill="#fff" opacity="0.85" transform="rotate(-15,14,20)"/>
  <ellipse cx="50" cy="20" rx="8" ry="14" fill="#fff" opacity="0.85" transform="rotate(15,50,20)"/>
  <ellipse cx="14" cy="20" rx="5" ry="10" fill="#3B82F6" opacity="0.5" transform="rotate(-15,14,20)"/>
  <ellipse cx="50" cy="20" rx="5" ry="10" fill="#3B82F6" opacity="0.5" transform="rotate(15,50,20)"/>
  <!-- Face -->
  <circle cx="32" cy="36" r="16" fill="#fff" opacity="0.15"/>
  <!-- Eyes -->
  <circle cx="24" cy="30" r="4" fill="#fff"/>
  <circle cx="40" cy="30" r="4" fill="#fff"/>
  <circle cx="24.5" cy="30.5" r="2.5" fill="#1a1a2e"/>
  <circle cx="40.5" cy="30.5" r="2.5" fill="#1a1a2e"/>
  <circle cx="25.5" cy="29.5" r="1" fill="#fff"/>
  <circle cx="41.5" cy="29.5" r="1" fill="#fff"/>
  <!-- Snout -->
  <ellipse cx="32" cy="40" rx="8" ry="6" fill="#fff" opacity="0.3"/>
  <!-- Nose -->
  <ellipse cx="32" cy="38" rx="3.5" ry="2.5" fill="#1a1a2e"/>
  <!-- Mouth -->
  <path d="M28,43 Q32,48 36,43" stroke="#fff" stroke-width="1.5" fill="none" stroke-linecap="round"/>
  <!-- Tongue -->
  <ellipse cx="32" cy="47" rx="3" ry="4" fill="#EF4444" opacity="0.7"/>
</svg>
