<svg xmlns="http://www.w3.org/2000/svg" viewBox="0 0 64 64">
  <circle cx="32" cy="32" r="32" fill="#EC4899"/>
  <!-- Bunny ears -->
  <ellipse cx="22" cy="10" rx="5" ry="14" fill="#fff" opacity="0.9"/>
  <ellipse cx="42" cy="10" rx="5" ry="14" fill="#fff" opacity="0.9"/>
  <ellipse cx="22" cy="10" rx="2.5" ry="10" fill="#EC4899" opacity="0.4"/>
  <ellipse cx="42" cy="10" rx="2.5" ry="10" fill="#EC4899" opacity="0.4"/>
  <!-- Face -->
  <circle cx="32" cy="38" r="16" fill="#fff" opacity="0.15"/>
  <!-- Eyes -->
  <circle cx="24" cy="32" r="3.5" fill="#fff"/>
  <circle cx="40" cy="32" r="3.5" fill="#fff"/>
  <circle cx="24.5" cy="32.5" r="2" fill="#1a1a2e"/>
  <circle cx="40.5" cy="32.5" r="2" fill="#1a1a2e"/>
  <circle cx="25" cy="31.5" r="0.8" fill="#fff"/>
  <circle cx="41" cy="31.5" r="0.8" fill="#fff"/>
  <!-- Cheeks -->
  <circle cx="18" cy="40" r="4" fill="#fff" opacity="0.2"/>
  <circle cx="46" cy="40" r="4" fill="#fff" opacity="0.2"/>
  <!-- Nose -->
  <ellipse cx="32" cy="39" rx="2" ry="1.5" fill="#fff"/>
  <!-- Mouth -->
  <path d="M30,42 Q32,44 34,42" stroke="#fff" stroke-width="1" fill="none" stroke-linecap="round"/>
  <!-- Teeth -->
  <rect x="30" y="42" width="4" height="3" rx="1" fill="#fff" opacity="0.8"/>
</svg>
